<svg width="435" height="233" viewBox="0 0 435 233" fill="none" xmlns="http://www.w3.org/2000/svg">
<mask id="path-1-outside-1_43_2" maskUnits="userSpaceOnUse" x="356" y="76.0001" width="77" height="68" fill="black">
<rect fill="white" x="356" y="76.0001" width="77" height="68"/>
<path d="M357.92 143V138.2H364.928L390.176 77.1441H398.72L424.064 138.2H431.072V143H401.696V138.2H413.408L390.848 83.0961H394.112L371.36 138.2H382.976V143H357.92ZM376.256 122.264V116.984H408.896V122.264H376.256Z"/>
</mask>
<path d="M357.92 143V138.2H364.928L390.176 77.1441H398.72L424.064 138.2H431.072V143H401.696V138.2H413.408L390.848 83.0961H394.112L371.36 138.2H382.976V143H357.92ZM376.256 122.264V116.984H408.896V122.264H376.256Z" fill="#4E4E4E"/>
<path d="M357.92 143H356.92V144H357.92V143ZM357.92 138.2V137.2H356.92V138.2H357.92ZM364.928 138.2V139.2H365.597L365.852 138.582L364.928 138.2ZM390.176 77.1441V76.1441H389.507L389.252 76.7619L390.176 77.1441ZM398.72 77.1441L399.644 76.7607L399.388 76.1441H398.72V77.1441ZM424.064 138.2L423.14 138.583L423.396 139.2H424.064V138.2ZM431.072 138.2H432.072V137.2H431.072V138.2ZM431.072 143V144H432.072V143H431.072ZM401.696 143H400.696V144H401.696V143ZM401.696 138.2V137.2H400.696V138.2H401.696ZM413.408 138.2V139.2H414.898L414.333 137.821L413.408 138.2ZM390.848 83.0961V82.0961H389.358L389.923 83.4749L390.848 83.0961ZM394.112 83.0961L395.036 83.4777L395.607 82.0961H394.112V83.0961ZM371.36 138.2L370.436 137.818L369.865 139.2H371.36V138.2ZM382.976 138.2H383.976V137.2H382.976V138.2ZM382.976 143V144H383.976V143H382.976ZM376.256 122.264H375.256V123.264H376.256V122.264ZM376.256 116.984V115.984H375.256V116.984H376.256ZM408.896 116.984H409.896V115.984H408.896V116.984ZM408.896 122.264V123.264H409.896V122.264H408.896ZM357.92 143H358.92V138.2H357.92H356.92V143H357.92ZM357.92 138.2V139.2H364.928V138.2V137.2H357.92V138.2ZM364.928 138.2L365.852 138.582L391.1 77.5262L390.176 77.1441L389.252 76.7619L364.004 137.818L364.928 138.2ZM390.176 77.1441V78.1441H398.72V77.1441V76.1441H390.176V77.1441ZM398.72 77.1441L397.796 77.5274L423.14 138.583L424.064 138.2L424.988 137.817L399.644 76.7607L398.72 77.1441ZM424.064 138.2V139.2H431.072V138.2V137.2H424.064V138.2ZM431.072 138.2H430.072V143H431.072H432.072V138.2H431.072ZM431.072 143V142H401.696V143V144H431.072V143ZM401.696 143H402.696V138.2H401.696H400.696V143H401.696ZM401.696 138.2V139.2H413.408V138.2V137.2H401.696V138.2ZM413.408 138.2L414.333 137.821L391.773 82.7172L390.848 83.0961L389.923 83.4749L412.483 138.579L413.408 138.2ZM390.848 83.0961V84.0961H394.112V83.0961V82.0961H390.848V83.0961ZM394.112 83.0961L393.188 82.7144L370.436 137.818L371.36 138.2L372.284 138.582L395.036 83.4777L394.112 83.0961ZM371.36 138.2V139.2H382.976V138.2V137.2H371.36V138.2ZM382.976 138.2H381.976V143H382.976H383.976V138.2H382.976ZM382.976 143V142H357.92V143V144H382.976V143ZM376.256 122.264H377.256V116.984H376.256H375.256V122.264H376.256ZM376.256 116.984V117.984H408.896V116.984V115.984H376.256V116.984ZM408.896 116.984H407.896V122.264H408.896H409.896V116.984H408.896ZM408.896 122.264V121.264H376.256V122.264V123.264H408.896V122.264Z" fill="white" mask="url(#path-1-outside-1_43_2)"/>
<mask id="path-3-outside-2_43_2" maskUnits="userSpaceOnUse" x="284" y="128" width="67" height="69" fill="black">
<rect fill="white" x="284" y="128" width="67" height="69"/>
<path d="M285.4 195V190.2H294.808V134.232H285.592V129.528H304.696V190.2H314.968V195H285.4ZM337.72 195.864C334.776 195.864 332.376 195.32 330.52 194.232C328.728 193.144 327.352 191.608 326.392 189.624C325.496 187.64 324.888 185.304 324.568 182.616L323.992 176.952C323.608 172.984 322.52 170.04 320.728 168.12C318.936 166.136 316.248 165.144 312.664 165.144H304.696V163.416H317.752C323.32 163.416 327.288 164.728 329.656 167.352C332.088 169.976 333.432 173.976 333.688 179.352L334.072 183.48C334.2 185.208 334.616 186.648 335.32 187.8C336.088 188.888 337.368 189.432 339.16 189.432C340.888 189.432 342.136 188.888 342.904 187.8C343.672 186.648 344.056 185.208 344.056 183.48V168.696H349.72V183C349.72 186.904 348.792 190.04 346.936 192.408C345.08 194.712 342.008 195.864 337.72 195.864ZM304.696 165.144V159.96H323.416C328.088 159.96 331.768 158.904 334.456 156.792C337.208 154.68 338.584 151.512 338.584 147.288C338.584 143.064 337.208 139.928 334.456 137.88C331.768 135.768 328.088 134.712 323.416 134.712H304.696V129.528H326.584C333.112 129.528 338.392 130.968 342.424 133.848C346.456 136.728 348.472 141.048 348.472 146.808C348.472 152.504 346.456 156.76 342.424 159.576C338.392 162.392 333.144 163.8 326.68 163.8H319.288L317.848 165.144H304.696Z"/>
</mask>
<path d="M285.4 195V190.2H294.808V134.232H285.592V129.528H304.696V190.2H314.968V195H285.4ZM337.72 195.864C334.776 195.864 332.376 195.32 330.52 194.232C328.728 193.144 327.352 191.608 326.392 189.624C325.496 187.64 324.888 185.304 324.568 182.616L323.992 176.952C323.608 172.984 322.52 170.04 320.728 168.12C318.936 166.136 316.248 165.144 312.664 165.144H304.696V163.416H317.752C323.32 163.416 327.288 164.728 329.656 167.352C332.088 169.976 333.432 173.976 333.688 179.352L334.072 183.48C334.2 185.208 334.616 186.648 335.32 187.8C336.088 188.888 337.368 189.432 339.16 189.432C340.888 189.432 342.136 188.888 342.904 187.8C343.672 186.648 344.056 185.208 344.056 183.48V168.696H349.72V183C349.72 186.904 348.792 190.04 346.936 192.408C345.08 194.712 342.008 195.864 337.72 195.864ZM304.696 165.144V159.96H323.416C328.088 159.96 331.768 158.904 334.456 156.792C337.208 154.68 338.584 151.512 338.584 147.288C338.584 143.064 337.208 139.928 334.456 137.88C331.768 135.768 328.088 134.712 323.416 134.712H304.696V129.528H326.584C333.112 129.528 338.392 130.968 342.424 133.848C346.456 136.728 348.472 141.048 348.472 146.808C348.472 152.504 346.456 156.76 342.424 159.576C338.392 162.392 333.144 163.8 326.68 163.8H319.288L317.848 165.144H304.696Z" fill="#4E4E4E"/>
<path d="M285.4 195H284.4V196H285.4V195ZM285.4 190.2V189.2H284.4V190.2H285.4ZM294.808 190.2V191.2H295.808V190.2H294.808ZM294.808 134.232H295.808V133.232H294.808V134.232ZM285.592 134.232H284.592V135.232H285.592V134.232ZM285.592 129.528V128.528H284.592V129.528H285.592ZM304.696 129.528H305.696V128.528H304.696V129.528ZM304.696 190.2H303.696V191.2H304.696V190.2ZM314.968 190.2H315.968V189.2H314.968V190.2ZM314.968 195V196H315.968V195H314.968ZM330.52 194.232L330.001 195.087L330.008 195.091L330.014 195.095L330.52 194.232ZM326.392 189.624L325.481 190.036L325.486 190.048L325.492 190.06L326.392 189.624ZM324.568 182.616L323.573 182.717L323.574 182.726L323.575 182.734L324.568 182.616ZM323.992 176.952L322.997 177.048L322.997 177.053L323.992 176.952ZM320.728 168.12L319.986 168.79L319.991 168.796L319.997 168.802L320.728 168.12ZM304.696 165.144H303.696V166.144H304.696V165.144ZM304.696 163.416V162.416H303.696V163.416H304.696ZM329.656 167.352L328.914 168.022L328.923 168.032L329.656 167.352ZM333.688 179.352L332.689 179.4L332.69 179.422L332.692 179.445L333.688 179.352ZM334.072 183.48L335.069 183.406L335.069 183.397L335.068 183.387L334.072 183.48ZM335.32 187.8L334.467 188.322L334.484 188.35L334.503 188.377L335.32 187.8ZM342.904 187.8L343.721 188.377L343.729 188.366L343.736 188.355L342.904 187.8ZM344.056 168.696V167.696H343.056V168.696H344.056ZM349.72 168.696H350.72V167.696H349.72V168.696ZM346.936 192.408L347.715 193.035L347.723 193.025L346.936 192.408ZM304.696 165.144H303.696V166.144H304.696V165.144ZM304.696 159.96V158.96H303.696V159.96H304.696ZM334.456 156.792L333.847 155.999L333.838 156.006L334.456 156.792ZM334.456 137.88L333.838 138.666L333.848 138.674L333.859 138.682L334.456 137.88ZM304.696 134.712H303.696V135.712H304.696V134.712ZM304.696 129.528V128.528H303.696V129.528H304.696ZM342.424 133.848L341.843 134.662V134.662L342.424 133.848ZM342.424 159.576L341.851 158.756V158.756L342.424 159.576ZM319.288 163.8V162.8H318.894L318.606 163.069L319.288 163.8ZM317.848 165.144V166.144H318.242L318.53 165.875L317.848 165.144ZM285.4 195H286.4V190.2H285.4H284.4V195H285.4ZM285.4 190.2V191.2H294.808V190.2V189.2H285.4V190.2ZM294.808 190.2H295.808V134.232H294.808H293.808V190.2H294.808ZM294.808 134.232V133.232H285.592V134.232V135.232H294.808V134.232ZM285.592 134.232H286.592V129.528H285.592H284.592V134.232H285.592ZM285.592 129.528V130.528H304.696V129.528V128.528H285.592V129.528ZM304.696 129.528H303.696V190.2H304.696H305.696V129.528H304.696ZM304.696 190.2V191.2H314.968V190.2V189.2H304.696V190.2ZM314.968 190.2H313.968V195H314.968H315.968V190.2H314.968ZM314.968 195V194H285.4V195V196H314.968V195ZM337.72 195.864V194.864C334.891 194.864 332.682 194.34 331.026 193.369L330.52 194.232L330.014 195.095C332.07 196.3 334.661 196.864 337.72 196.864V195.864ZM330.52 194.232L331.039 193.377C329.42 192.395 328.173 191.008 327.292 189.188L326.392 189.624L325.492 190.06C326.531 192.208 328.036 193.894 330.001 195.087L330.52 194.232ZM326.392 189.624L327.303 189.212C326.458 187.341 325.872 185.108 325.561 182.498L324.568 182.616L323.575 182.734C323.904 185.5 324.534 187.939 325.481 190.036L326.392 189.624ZM324.568 182.616L325.563 182.515L324.987 176.851L323.992 176.952L322.997 177.053L323.573 182.717L324.568 182.616ZM323.992 176.952L324.987 176.856C324.593 172.776 323.461 169.583 321.459 167.438L320.728 168.12L319.997 168.802C321.579 170.497 322.623 173.192 322.997 177.048L323.992 176.952ZM320.728 168.12L321.47 167.45C319.43 165.191 316.43 164.144 312.664 164.144V165.144V166.144C316.066 166.144 318.442 167.081 319.986 168.79L320.728 168.12ZM312.664 165.144V164.144H304.696V165.144V166.144H312.664V165.144ZM304.696 165.144H305.696V163.416H304.696H303.696V165.144H304.696ZM304.696 163.416V164.416H317.752V163.416V162.416H304.696V163.416ZM317.752 163.416V164.416C323.197 164.416 326.821 165.703 328.914 168.022L329.656 167.352L330.398 166.682C327.755 163.753 323.443 162.416 317.752 162.416V163.416ZM329.656 167.352L328.923 168.032C331.131 170.414 332.439 174.145 332.689 179.4L333.688 179.352L334.687 179.304C334.425 173.807 333.045 169.538 330.389 166.672L329.656 167.352ZM333.688 179.352L332.692 179.445L333.076 183.573L334.072 183.48L335.068 183.387L334.684 179.259L333.688 179.352ZM334.072 183.48L333.075 183.554C333.211 185.397 333.66 187.001 334.467 188.322L335.32 187.8L336.173 187.279C335.572 186.295 335.189 185.019 335.069 183.406L334.072 183.48ZM335.32 187.8L334.503 188.377C335.519 189.817 337.166 190.432 339.16 190.432V189.432V188.432C337.57 188.432 336.657 187.959 336.137 187.223L335.32 187.8ZM339.16 189.432V190.432C341.106 190.432 342.711 189.807 343.721 188.377L342.904 187.8L342.087 187.223C341.561 187.969 340.67 188.432 339.16 188.432V189.432ZM342.904 187.8L343.736 188.355C344.638 187.002 345.056 185.356 345.056 183.48H344.056H343.056C343.056 185.06 342.706 186.294 342.072 187.245L342.904 187.8ZM344.056 183.48H345.056V168.696H344.056H343.056V183.48H344.056ZM344.056 168.696V169.696H349.72V168.696V167.696H344.056V168.696ZM349.72 168.696H348.72V183H349.72H350.72V168.696H349.72ZM349.72 183H348.72C348.72 186.747 347.831 189.646 346.149 191.791L346.936 192.408L347.723 193.025C349.753 190.435 350.72 187.061 350.72 183H349.72ZM346.936 192.408L346.157 191.781C344.565 193.758 341.847 194.864 337.72 194.864V195.864V196.864C342.169 196.864 345.595 195.666 347.715 193.035L346.936 192.408ZM304.696 165.144H305.696V159.96H304.696H303.696V165.144H304.696ZM304.696 159.96V160.96H323.416V159.96V158.96H304.696V159.96ZM323.416 159.96V160.96C328.231 160.96 332.155 159.872 335.074 157.578L334.456 156.792L333.838 156.006C331.381 157.936 327.945 158.96 323.416 158.96V159.96ZM334.456 156.792L335.065 157.585C338.118 155.243 339.584 151.748 339.584 147.288H338.584H337.584C337.584 151.277 336.298 154.118 333.847 155.999L334.456 156.792ZM338.584 147.288H339.584C339.584 142.83 338.118 139.358 335.053 137.078L334.456 137.88L333.859 138.682C336.298 140.498 337.584 143.299 337.584 147.288H338.584ZM334.456 137.88L335.074 137.094C332.155 134.8 328.231 133.712 323.416 133.712V134.712V135.712C327.945 135.712 331.381 136.736 333.838 138.666L334.456 137.88ZM323.416 134.712V133.712H304.696V134.712V135.712H323.416V134.712ZM304.696 134.712H305.696V129.528H304.696H303.696V134.712H304.696ZM304.696 129.528V130.528H326.584V129.528V128.528H304.696V129.528ZM326.584 129.528V130.528C332.969 130.528 338.027 131.936 341.843 134.662L342.424 133.848L343.005 133.034C338.757 130 333.255 128.528 326.584 128.528V129.528ZM342.424 133.848L341.843 134.662C345.567 137.322 347.472 141.311 347.472 146.808H348.472H349.472C349.472 140.785 347.345 136.134 343.005 133.034L342.424 133.848ZM348.472 146.808H347.472C347.472 152.237 345.57 156.159 341.851 158.756L342.424 159.576L342.997 160.396C347.342 157.361 349.472 152.771 349.472 146.808H348.472ZM342.424 159.576L341.851 158.756C338.033 161.423 333.003 162.8 326.68 162.8V163.8V164.8C333.285 164.8 338.751 163.361 342.997 160.396L342.424 159.576ZM326.68 163.8V162.8H319.288V163.8V164.8H326.68V163.8ZM319.288 163.8L318.606 163.069L317.166 164.413L317.848 165.144L318.53 165.875L319.97 164.531L319.288 163.8ZM317.848 165.144V164.144H304.696V165.144V166.144H317.848V165.144Z" fill="white" mask="url(#path-3-outside-2_43_2)"/>
<mask id="path-5-outside-3_43_2" maskUnits="userSpaceOnUse" x="185" y="140" width="65" height="68" fill="black">
<rect fill="white" x="185" y="140" width="65" height="68"/>
<path d="M186.4 207V202.2H195.808V146.328H186.592V141.528H205.696V207H186.4ZM205.696 207V201.624H224.224C228.704 201.624 232.256 200.568 234.88 198.456C237.504 196.28 238.816 193.112 238.816 188.952C238.816 184.792 237.504 181.656 234.88 179.544C232.256 177.368 228.704 176.28 224.224 176.28H205.696V172.92H227.296C233.952 172.92 239.2 174.264 243.04 176.952C246.88 179.64 248.8 183.8 248.8 189.432C248.8 195.256 246.848 199.64 242.944 202.584C239.04 205.528 233.856 207 227.392 207H205.696ZM205.696 173.784V171H221.92C226.208 171 229.6 169.976 232.096 167.928C234.656 165.88 235.936 162.872 235.936 158.904C235.936 154.936 234.656 151.928 232.096 149.88C229.6 147.832 226.208 146.808 221.92 146.808H205.696V141.528H224.992C231.264 141.528 236.288 142.904 240.064 145.656C243.84 148.344 245.728 152.408 245.728 157.848C245.728 163.224 243.904 167.224 240.256 169.848C236.608 172.472 231.648 173.784 225.376 173.784H205.696Z"/>
</mask>
<path d="M186.4 207V202.2H195.808V146.328H186.592V141.528H205.696V207H186.4ZM205.696 207V201.624H224.224C228.704 201.624 232.256 200.568 234.88 198.456C237.504 196.28 238.816 193.112 238.816 188.952C238.816 184.792 237.504 181.656 234.88 179.544C232.256 177.368 228.704 176.28 224.224 176.28H205.696V172.92H227.296C233.952 172.92 239.2 174.264 243.04 176.952C246.88 179.64 248.8 183.8 248.8 189.432C248.8 195.256 246.848 199.64 242.944 202.584C239.04 205.528 233.856 207 227.392 207H205.696ZM205.696 173.784V171H221.92C226.208 171 229.6 169.976 232.096 167.928C234.656 165.88 235.936 162.872 235.936 158.904C235.936 154.936 234.656 151.928 232.096 149.88C229.6 147.832 226.208 146.808 221.92 146.808H205.696V141.528H224.992C231.264 141.528 236.288 142.904 240.064 145.656C243.84 148.344 245.728 152.408 245.728 157.848C245.728 163.224 243.904 167.224 240.256 169.848C236.608 172.472 231.648 173.784 225.376 173.784H205.696Z" fill="#4E4E4E"/>
<path d="M186.4 207H185.4V208H186.4V207ZM186.4 202.2V201.2H185.4V202.2H186.4ZM195.808 202.2V203.2H196.808V202.2H195.808ZM195.808 146.328H196.808V145.328H195.808V146.328ZM186.592 146.328H185.592V147.328H186.592V146.328ZM186.592 141.528V140.528H185.592V141.528H186.592ZM205.696 141.528H206.696V140.528H205.696V141.528ZM205.696 207V208H206.696V207H205.696ZM205.696 207H204.696V208H205.696V207ZM205.696 201.624V200.624H204.696V201.624H205.696ZM234.88 198.456L235.507 199.235L235.513 199.23L235.518 199.226L234.88 198.456ZM234.88 179.544L234.242 180.314L234.247 180.318L234.253 180.323L234.88 179.544ZM205.696 176.28H204.696V177.28H205.696V176.28ZM205.696 172.92V171.92H204.696V172.92H205.696ZM205.696 173.784H204.696V174.784H205.696V173.784ZM205.696 171V170H204.696V171H205.696ZM232.096 167.928L231.471 167.147L231.462 167.155L232.096 167.928ZM232.096 149.88L231.462 150.653L231.471 150.661L232.096 149.88ZM205.696 146.808H204.696V147.808H205.696V146.808ZM205.696 141.528V140.528H204.696V141.528H205.696ZM240.064 145.656L239.475 146.464L239.484 146.471L240.064 145.656ZM186.4 207H187.4V202.2H186.4H185.4V207H186.4ZM186.4 202.2V203.2H195.808V202.2V201.2H186.4V202.2ZM195.808 202.2H196.808V146.328H195.808H194.808V202.2H195.808ZM195.808 146.328V145.328H186.592V146.328V147.328H195.808V146.328ZM186.592 146.328H187.592V141.528H186.592H185.592V146.328H186.592ZM186.592 141.528V142.528H205.696V141.528V140.528H186.592V141.528ZM205.696 141.528H204.696V207H205.696H206.696V141.528H205.696ZM205.696 207V206H186.4V207V208H205.696V207ZM205.696 207H206.696V201.624H205.696H204.696V207H205.696ZM205.696 201.624V202.624H224.224V201.624V200.624H205.696V201.624ZM224.224 201.624V202.624C228.857 202.624 232.654 201.531 235.507 199.235L234.88 198.456L234.253 197.677C231.858 199.605 228.551 200.624 224.224 200.624V201.624ZM234.88 198.456L235.518 199.226C238.422 196.818 239.816 193.338 239.816 188.952H238.816H237.816C237.816 192.886 236.586 195.742 234.242 197.686L234.88 198.456ZM238.816 188.952H239.816C239.816 184.568 238.422 181.111 235.507 178.765L234.88 179.544L234.253 180.323C236.586 182.201 237.816 185.017 237.816 188.952H238.816ZM234.88 179.544L235.518 178.774C232.665 176.408 228.863 175.28 224.224 175.28V176.28V177.28C228.545 177.28 231.847 178.328 234.242 180.314L234.88 179.544ZM224.224 176.28V175.28H205.696V176.28V177.28H224.224V176.28ZM205.696 176.28H206.696V172.92H205.696H204.696V176.28H205.696ZM205.696 172.92V173.92H227.296V172.92V171.92H205.696V172.92ZM227.296 172.92V173.92C233.83 173.92 238.852 175.241 242.467 177.771L243.04 176.952L243.613 176.133C239.548 173.287 234.074 171.92 227.296 171.92V172.92ZM243.04 176.952L242.467 177.771C245.983 180.233 247.8 184.052 247.8 189.432H248.8H249.8C249.8 183.549 247.777 179.047 243.613 176.133L243.04 176.952ZM248.8 189.432H247.8C247.8 195.01 245.946 199.068 242.342 201.786L242.944 202.584L243.546 203.382C247.75 200.212 249.8 195.502 249.8 189.432H248.8ZM242.944 202.584L242.342 201.786C238.66 204.562 233.708 206 227.392 206V207V208C234.004 208 239.42 206.494 243.546 203.382L242.944 202.584ZM227.392 207V206H205.696V207V208H227.392V207ZM205.696 173.784H206.696V171H205.696H204.696V173.784H205.696ZM205.696 171V172H221.92V171V170H205.696V171ZM221.92 171V172C226.363 172 230.004 170.938 232.73 168.701L232.096 167.928L231.462 167.155C229.196 169.014 226.053 170 221.92 170V171ZM232.096 167.928L232.721 168.709C235.568 166.431 236.936 163.105 236.936 158.904H235.936H234.936C234.936 162.639 233.744 165.329 231.471 167.147L232.096 167.928ZM235.936 158.904H236.936C236.936 154.703 235.568 151.377 232.721 149.099L232.096 149.88L231.471 150.661C233.744 152.479 234.936 155.169 234.936 158.904H235.936ZM232.096 149.88L232.73 149.107C230.004 146.87 226.363 145.808 221.92 145.808V146.808V147.808C226.053 147.808 229.196 148.794 231.462 150.653L232.096 149.88ZM221.92 146.808V145.808H205.696V146.808V147.808H221.92V146.808ZM205.696 146.808H206.696V141.528H205.696H204.696V146.808H205.696ZM205.696 141.528V142.528H224.992V141.528V140.528H205.696V141.528ZM224.992 141.528V142.528C231.124 142.528 235.92 143.873 239.475 146.464L240.064 145.656L240.653 144.848C236.656 141.935 231.404 140.528 224.992 140.528V141.528ZM240.064 145.656L239.484 146.471C242.948 148.937 244.728 152.667 244.728 157.848H245.728H246.728C246.728 152.149 244.732 147.751 240.644 144.841L240.064 145.656ZM245.728 157.848H244.728C244.728 162.974 243.006 166.638 239.672 169.036L240.256 169.848L240.84 170.66C244.802 167.81 246.728 163.474 246.728 157.848H245.728ZM240.256 169.848L239.672 169.036C236.25 171.498 231.519 172.784 225.376 172.784V173.784V174.784C231.777 174.784 236.966 173.446 240.84 170.66L240.256 169.848ZM225.376 173.784V172.784H205.696V173.784V174.784H225.376V173.784Z" fill="white" mask="url(#path-5-outside-3_43_2)"/>
<mask id="path-7-outside-4_43_2" maskUnits="userSpaceOnUse" x="0" y="83.0001" width="76" height="70" fill="black">
<rect fill="white" y="83.0001" width="76" height="70"/>
<path d="M38.304 151.056C29.152 151.056 22.272 148.72 17.664 144.048C13.056 139.312 10.752 132.624 10.752 123.984V89.3281H1.632V84.5281H30.624V89.3281H20.544V125.136C20.544 131.344 22.112 136.24 25.248 139.824C28.384 143.408 33.248 145.2 39.84 145.2C46.432 145.2 51.264 143.408 54.336 139.824C57.408 136.24 58.944 131.344 58.944 125.136V89.3281H48.864V84.5281H74.976V89.3281H65.952V123.984C65.952 132.624 63.648 139.312 59.04 144.048C54.432 148.72 47.52 151.056 38.304 151.056Z"/>
</mask>
<path d="M38.304 151.056C29.152 151.056 22.272 148.72 17.664 144.048C13.056 139.312 10.752 132.624 10.752 123.984V89.3281H1.632V84.5281H30.624V89.3281H20.544V125.136C20.544 131.344 22.112 136.24 25.248 139.824C28.384 143.408 33.248 145.2 39.84 145.2C46.432 145.2 51.264 143.408 54.336 139.824C57.408 136.24 58.944 131.344 58.944 125.136V89.3281H48.864V84.5281H74.976V89.3281H65.952V123.984C65.952 132.624 63.648 139.312 59.04 144.048C54.432 148.72 47.52 151.056 38.304 151.056Z" fill="#4E4E4E"/>
<path d="M17.664 144.048L16.9473 144.745L16.952 144.75L17.664 144.048ZM10.752 89.3281H11.752V88.3281H10.752V89.3281ZM1.632 89.3281H0.632V90.3281H1.632V89.3281ZM1.632 84.5281V83.5281H0.632V84.5281H1.632ZM30.624 84.5281H31.624V83.5281H30.624V84.5281ZM30.624 89.3281V90.3281H31.624V89.3281H30.624ZM20.544 89.3281V88.3281H19.544V89.3281H20.544ZM25.248 139.824L26.0006 139.166V139.166L25.248 139.824ZM54.336 139.824L55.0953 140.475V140.475L54.336 139.824ZM58.944 89.3281H59.944V88.3281H58.944V89.3281ZM48.864 89.3281H47.864V90.3281H48.864V89.3281ZM48.864 84.5281V83.5281H47.864V84.5281H48.864ZM74.976 84.5281H75.976V83.5281H74.976V84.5281ZM74.976 89.3281V90.3281H75.976V89.3281H74.976ZM65.952 89.3281V88.3281H64.952V89.3281H65.952ZM59.04 144.048L59.752 144.75L59.7567 144.745L59.04 144.048ZM38.304 151.056V150.056C29.312 150.056 22.732 147.762 18.376 143.346L17.664 144.048L16.952 144.75C21.812 149.678 28.992 152.056 38.304 152.056V151.056ZM17.664 144.048L18.3807 143.351C14.005 138.853 11.752 132.447 11.752 123.984H10.752H9.752C9.752 132.802 12.107 139.771 16.9473 144.745L17.664 144.048ZM10.752 123.984H11.752V89.3281H10.752H9.752V123.984H10.752ZM10.752 89.3281V88.3281H1.632V89.3281V90.3281H10.752V89.3281ZM1.632 89.3281H2.632V84.5281H1.632H0.632V89.3281H1.632ZM1.632 84.5281V85.5281H30.624V84.5281V83.5281H1.632V84.5281ZM30.624 84.5281H29.624V89.3281H30.624H31.624V84.5281H30.624ZM30.624 89.3281V88.3281H20.544V89.3281V90.3281H30.624V89.3281ZM20.544 89.3281H19.544V125.136H20.544H21.544V89.3281H20.544ZM20.544 125.136H19.544C19.544 131.511 21.1566 136.667 24.4954 140.483L25.248 139.824L26.0006 139.166C23.0674 135.813 21.544 131.177 21.544 125.136H20.544ZM25.248 139.824L24.4954 140.483C27.886 144.357 33.075 146.2 39.84 146.2V145.2V144.2C33.421 144.2 28.882 142.459 26.0006 139.166L25.248 139.824ZM39.84 145.2V146.2C46.6034 146.2 51.7668 144.358 55.0953 140.475L54.336 139.824L53.5767 139.173C50.7612 142.458 46.2606 144.2 39.84 144.2V145.2ZM54.336 139.824L55.0953 140.475C58.366 136.659 59.944 131.506 59.944 125.136H58.944H57.944C57.944 131.182 56.45 135.821 53.5767 139.173L54.336 139.824ZM58.944 125.136H59.944V89.3281H58.944H57.944V125.136H58.944ZM58.944 89.3281V88.3281H48.864V89.3281V90.3281H58.944V89.3281ZM48.864 89.3281H49.864V84.5281H48.864H47.864V89.3281H48.864ZM48.864 84.5281V85.5281H74.976V84.5281V83.5281H48.864V84.5281ZM74.976 84.5281H73.976V89.3281H74.976H75.976V84.5281H74.976ZM74.976 89.3281V88.3281H65.952V89.3281V90.3281H74.976V89.3281ZM65.952 89.3281H64.952V123.984H65.952H66.952V89.3281H65.952ZM65.952 123.984H64.952C64.952 132.447 62.699 138.853 58.3233 143.351L59.04 144.048L59.7567 144.745C64.597 139.771 66.952 132.802 66.952 123.984H65.952ZM59.04 144.048L58.328 143.346C53.9732 147.761 47.3623 150.056 38.304 150.056V151.056V152.056C47.6777 152.056 54.8908 149.679 59.752 144.75L59.04 144.048Z" fill="white" mask="url(#path-7-outside-4_43_2)"/>
<mask id="path-9-outside-5_43_2" maskUnits="userSpaceOnUse" x="72" y="128" width="92" height="68" fill="black">
<rect fill="white" x="72" y="128" width="92" height="68"/>
<path d="M113.144 195L88.76 142.776V129.528H92.984L119.096 185.784H117.176L142.808 129.528H143.768V141.72L119.48 195H113.144ZM73.4 195V190.2H82.808V134.328H73.592V129.528H88.76V190.2H98.936V195H73.4ZM133.496 195V190.2H143.768V129.528H162.584V134.328H153.368V190.2H162.776V195H133.496Z"/>
</mask>
<path d="M113.144 195L88.76 142.776V129.528H92.984L119.096 185.784H117.176L142.808 129.528H143.768V141.72L119.48 195H113.144ZM73.4 195V190.2H82.808V134.328H73.592V129.528H88.76V190.2H98.936V195H73.4ZM133.496 195V190.2H143.768V129.528H162.584V134.328H153.368V190.2H162.776V195H133.496Z" fill="#4E4E4E"/>
<path d="M113.144 195L112.238 195.423L112.507 196H113.144V195ZM88.76 142.776H87.76V142.998L87.8539 143.199L88.76 142.776ZM88.76 129.528V128.528H87.76V129.528H88.76ZM92.984 129.528L93.8911 129.107L93.6223 128.528H92.984V129.528ZM119.096 185.784V186.784H120.663L120.003 185.363L119.096 185.784ZM117.176 185.784L116.266 185.369L115.621 186.784H117.176V185.784ZM142.808 129.528V128.528H142.165L141.898 129.113L142.808 129.528ZM143.768 129.528H144.768V128.528H143.768V129.528ZM143.768 141.72L144.678 142.135L144.768 141.937V141.72H143.768ZM119.48 195V196H120.123L120.39 195.415L119.48 195ZM73.4 195H72.4V196H73.4V195ZM73.4 190.2V189.2H72.4V190.2H73.4ZM82.808 190.2V191.2H83.808V190.2H82.808ZM82.808 134.328H83.808V133.328H82.808V134.328ZM73.592 134.328H72.592V135.328H73.592V134.328ZM73.592 129.528V128.528H72.592V129.528H73.592ZM88.76 129.528H89.76V128.528H88.76V129.528ZM88.76 190.2H87.76V191.2H88.76V190.2ZM98.936 190.2H99.936V189.2H98.936V190.2ZM98.936 195V196H99.936V195H98.936ZM133.496 195H132.496V196H133.496V195ZM133.496 190.2V189.2H132.496V190.2H133.496ZM143.768 190.2V191.2H144.768V190.2H143.768ZM143.768 129.528V128.528H142.768V129.528H143.768ZM162.584 129.528H163.584V128.528H162.584V129.528ZM162.584 134.328V135.328H163.584V134.328H162.584ZM153.368 134.328V133.328H152.368V134.328H153.368ZM153.368 190.2H152.368V191.2H153.368V190.2ZM162.776 190.2H163.776V189.2H162.776V190.2ZM162.776 195V196H163.776V195H162.776ZM113.144 195L114.05 194.577L89.6661 142.353L88.76 142.776L87.8539 143.199L112.238 195.423L113.144 195ZM88.76 142.776H89.76V129.528H88.76H87.76V142.776H88.76ZM88.76 129.528V130.528H92.984V129.528V128.528H88.76V129.528ZM92.984 129.528L92.077 129.949L118.189 186.205L119.096 185.784L120.003 185.363L93.8911 129.107L92.984 129.528ZM119.096 185.784V184.784H117.176V185.784V186.784H119.096V185.784ZM117.176 185.784L118.086 186.199L143.718 129.943L142.808 129.528L141.898 129.113L116.266 185.369L117.176 185.784ZM142.808 129.528V130.528H143.768V129.528V128.528H142.808V129.528ZM143.768 129.528H142.768V141.72H143.768H144.768V129.528H143.768ZM143.768 141.72L142.858 141.305L118.57 194.585L119.48 195L120.39 195.415L144.678 142.135L143.768 141.72ZM119.48 195V194H113.144V195V196H119.48V195ZM73.4 195H74.4V190.2H73.4H72.4V195H73.4ZM73.4 190.2V191.2H82.808V190.2V189.2H73.4V190.2ZM82.808 190.2H83.808V134.328H82.808H81.808V190.2H82.808ZM82.808 134.328V133.328H73.592V134.328V135.328H82.808V134.328ZM73.592 134.328H74.592V129.528H73.592H72.592V134.328H73.592ZM73.592 129.528V130.528H88.76V129.528V128.528H73.592V129.528ZM88.76 129.528H87.76V190.2H88.76H89.76V129.528H88.76ZM88.76 190.2V191.2H98.936V190.2V189.2H88.76V190.2ZM98.936 190.2H97.936V195H98.936H99.936V190.2H98.936ZM98.936 195V194H73.4V195V196H98.936V195ZM133.496 195H134.496V190.2H133.496H132.496V195H133.496ZM133.496 190.2V191.2H143.768V190.2V189.2H133.496V190.2ZM143.768 190.2H144.768V129.528H143.768H142.768V190.2H143.768ZM143.768 129.528V130.528H162.584V129.528V128.528H143.768V129.528ZM162.584 129.528H161.584V134.328H162.584H163.584V129.528H162.584ZM162.584 134.328V133.328H153.368V134.328V135.328H162.584V134.328ZM153.368 134.328H152.368V190.2H153.368H154.368V134.328H153.368ZM153.368 190.2V191.2H162.776V190.2V189.2H153.368V190.2ZM162.776 190.2H161.776V195H162.776H163.776V190.2H162.776ZM162.776 195V194H133.496V195V196H162.776V195Z" fill="white" mask="url(#path-9-outside-5_43_2)"/>
<path d="M37 50.4771C46.0225 62.0801 95.5349 48.1087 168.5 87.9772C158.395 79.0265 152.025 74.4541 138 67.9772C190.341 63.1838 229.069 63.102 291.5 67.9772C279.406 73.5705 273.036 78.2893 262 87.9772C341.039 45.9705 387.204 62.1611 393 50.4771C390.96 39.8911 381.299 38.5884 360 38.4771C357.27 48.4591 354.125 51.0655 345.5 50.4771C328.228 28.8957 312.579 16.6997 287.5 9.47727C226.991 -7.94885 150.159 6.48782 142.5 8.97702C131.668 12.4979 108.836 18.1186 85 50.4771C74.1421 52.327 73.714 45.9658 70 38.4771C47.1925 36.4243 39.5651 41.4302 37 50.4771Z" fill="#4E4E4E" stroke="#4E4E4E" stroke-width="2"/>
<path d="M261.5 14.0001C252.711 35.7118 231.624 24.8447 215 54.5001H232C240.401 28.1179 271.464 29.7096 261.5 14.0001Z" fill="#F9F6F0" stroke="#4E4E4E" stroke-width="2"/>
<path d="M156 110C140.11 91.5233 147.277 100.683 84.1713 66.0001C80.4097 71.966 86.3718 86.5272 92.6511 89.5001C98.9304 92.4729 123.833 99.545 133.055 102L98.138 84.0001C123.123 90.0464 135.819 95.6917 156 110Z" fill="#4E4E4E" stroke="#4E4E4E" stroke-width="2"/>
<path d="M273 110C288.89 91.5233 281.723 100.683 344.829 66.0001C348.59 71.966 342.628 86.5272 336.349 89.5001C330.07 92.4729 305.167 99.545 295.945 102L330.862 84.0001C305.877 90.0464 293.181 95.6917 273 110Z" fill="#4E4E4E" stroke="#4E4E4E" stroke-width="2"/>
<path d="M250.775 51.0044C253.564 27.8493 280.355 28.7478 265.81 9.69522C297.22 11.0515 311.187 18.9724 327.288 50.4929C276.309 59.9035 261.532 59.3219 250.775 51.0044Z" fill="#F9F6F0" stroke="#4E4E4E" stroke-width="2"/>
</svg>
